<svg 
 xmlns="http://www.w3.org/2000/svg"
 xmlns:xlink="http://www.w3.org/1999/xlink"
 width="61px" height="61px">
<path fill-rule="evenodd"  fill="rgb(255, 255, 255)"
 d="M29.617,31.551 L13.680,31.551 L13.680,29.676 L29.617,29.676 L29.617,13.738 L31.492,13.738 L31.492,29.676 L47.430,29.676 L47.430,31.551 L31.492,31.551 L31.492,47.488 L29.617,47.488 L29.617,31.551 ZM0.555,30.613 C0.555,22.333 3.484,15.262 9.344,9.403 C15.203,3.543 22.273,0.614 30.555,0.614 C38.835,0.614 45.906,3.543 51.766,9.403 C57.625,15.262 60.555,22.333 60.555,30.613 C60.555,38.895 57.625,45.965 51.766,51.824 C45.906,57.683 38.835,60.613 30.555,60.613 C22.273,60.613 15.203,57.683 9.344,51.824 C3.484,45.965 0.555,38.895 0.555,30.613 ZM2.430,30.613 C2.430,38.271 5.163,44.910 10.633,50.535 C16.258,56.005 22.897,58.738 30.555,58.738 C38.210,58.738 44.852,56.005 50.477,50.535 C55.944,44.910 58.680,38.271 58.680,30.613 C58.680,22.958 55.944,16.316 50.477,10.691 C44.852,5.224 38.210,2.488 30.555,2.488 C22.897,2.488 16.258,5.224 10.633,10.691 L10.633,10.691 C5.163,16.316 2.430,22.958 2.430,30.613 Z"/>
</svg>